<?xml version="1.0" encoding="iso-8859-1"?>
<!-- Generator: Adobe Illustrator 21.0.0, SVG Export Plug-In . SVG Version: 6.00 Build 0)  -->
<svg xmlns="http://www.w3.org/2000/svg" xmlns:xlink="http://www.w3.org/1999/xlink" version="1.1" id="Capa_1" x="0px" y="0px" viewBox="0 0 512 512" style="enable-background:new 0 0 512 512;" xml:space="preserve" width="512" height="512">
<g>
	<g>
		<path style="fill:#3D5572;" d="M329.98,505.62c-3.74,4.06-9.05,6.38-14.56,6.38H196.58c-5.51,0-10.82-2.32-14.56-6.38    c-3.74-4.05-5.63-9.53-5.19-15.04c1.59-19.84,10.53-38.25,25.17-51.83c11.01-10.21,24.5-16.99,39-19.76v-41.21h30v41.21    c14.5,2.77,27.99,9.55,39,19.76c14.64,13.58,23.58,31.99,25.17,51.83C335.61,496.09,333.72,501.57,329.98,505.62z"/>
		<path style="fill:#283F56;" d="M329.98,505.62c-3.74,4.06-9.05,6.38-14.56,6.38H256V377.78h15v41.21    c14.5,2.77,27.99,9.55,39,19.76c14.64,13.58,23.58,31.99,25.17,51.83C335.61,496.09,333.72,501.57,329.98,505.62z"/>
		<path style="fill:#BBF469;" d="M512,51.54v289.71c0,28.41-23.12,51.53-51.54,51.53H51.54C23.12,392.78,0,369.66,0,341.25V51.54    C0,23.12,23.12,0,51.54,0h408.92C488.88,0,512,23.12,512,51.54z"/>
		<path style="fill:#70DD4B;" d="M512,51.54v289.71c0,28.41-23.12,51.53-51.54,51.53H256V0h204.46C488.88,0,512,23.12,512,51.54z"/>
		<path style="fill:#537DA0;" d="M512,317.1v24.15c0,28.41-23.12,51.53-51.54,51.53H51.54C23.12,392.78,0,369.66,0,341.25V317.1H512    z"/>
		<path style="fill:#3D5572;" d="M512,317.1v24.15c0,28.41-23.12,51.53-51.54,51.53H256V317.1H512z"/>
	</g>
	<path style="fill:#FFFFFF;" d="M123.135,236.294c8.284,0,15-6.716,15-15v-18.919h64.688v18.919c0,8.284,6.716,15,15,15   s15-6.716,15-15v-59.303c0-34.377-27.967-62.345-62.344-62.345s-62.345,27.968-62.345,62.345v59.303   C108.135,229.579,114.851,236.294,123.135,236.294z M170.479,129.647c17.834,0,32.344,14.51,32.344,32.345v10.383h-64.688v-10.383   C138.135,144.157,152.645,129.647,170.479,129.647z"/>
	<path style="fill:#D9EFFF;" d="M292.406,236.294h41.763c38.431,0,69.696-31.266,69.696-69.697S372.6,96.901,334.169,96.901h-41.763   c-9.833,0-17.833,8-17.833,17.833v103.728C274.573,228.294,282.573,236.294,292.406,236.294z M304.573,126.901h29.596   c21.889,0,39.696,17.808,39.696,39.697s-17.808,39.697-39.696,39.697h-29.596V126.901z"/>
</g>















</svg>
